<?xml version="1.0" encoding="UTF-8" standalone="no"?>
<svg
   xmlns:dc="http://purl.org/dc/elements/1.1/"
   xmlns:cc="http://creativecommons.org/ns#"
   xmlns:rdf="http://www.w3.org/1999/02/22-rdf-syntax-ns#"
   xmlns:svg="http://www.w3.org/2000/svg"
   xmlns="http://www.w3.org/2000/svg"
   xmlns:sodipodi="http://sodipodi.sourceforge.net/DTD/sodipodi-0.dtd"
   xmlns:inkscape="http://www.inkscape.org/namespaces/inkscape"
   viewBox="0 0 245.67 288.40193"
   version="1.1"
   id="svg22"
   sodipodi:docname="favicon.svg"
   width="245.67"
   height="288.40192"
   inkscape:version="0.92.4 5da689c313, 2019-01-14">
  <metadata
     id="metadata26">
    <rdf:RDF>
      <cc:Work
         rdf:about="">
        <dc:format>image/svg+xml</dc:format>
        <dc:type
           rdf:resource="http://purl.org/dc/dcmitype/StillImage" />
        <dc:title>3DSecure.io</dc:title>
      </cc:Work>
    </rdf:RDF>
  </metadata>
  <sodipodi:namedview
     pagecolor="#ffffff"
     bordercolor="#666666"
     borderopacity="1"
     objecttolerance="10"
     gridtolerance="10"
     guidetolerance="10"
     inkscape:pageopacity="0"
     inkscape:pageshadow="2"
     inkscape:window-width="3840"
     inkscape:window-height="2160"
     id="namedview24"
     showgrid="false"
     inkscape:zoom="1.6799938"
     inkscape:cx="450.68279"
     inkscape:cy="113.0968"
     inkscape:window-x="0"
     inkscape:window-y="0"
     inkscape:window-maximized="0"
     inkscape:current-layer="svg22" />
  <defs
     id="defs4">
    <style
       id="style2">
            .cls-1,.cls-7{fill:#39757c;}
            .cls-2{fill:#709ba0;}
            .cls-3{fill:#8baeb3;}
            .cls-4{fill:#99b8bb;}
            .cls-5{fill:#639297;}
            .cls-6{fill:#7da4aa;}
            .cls-7{
                font-size:123px;
                font-family:Montserrat-Medium, Montserrat;font-weight:500;
            }
            .cls-8{
                letter-spacing:-0.01em;
            }
        </style>
  </defs>
  <title
     id="title6">3DSecure.io</title>
  <g
     id="Lag_2"
     data-name="Lag 2"
     transform="translate(1.8633289e-6,0.00595881)">
    <g
       id="Lag_1-2"
       data-name="Lag 1">
      <path
         class="cls-1"
         d="M 245.67,212 V 76.39 a 8.83,8.83 0 0 0 -4.31,-7.58 l -114,-67.58 a 8.81,8.81 0 0 0 -9,0 L 4.32,68.81 A 8.81,8.81 0 0 0 0,76.39 V 212 a 8.8,8.8 0 0 0 4.32,7.58 l 114,67.58 a 8.81,8.81 0 0 0 9,0 l 114,-67.58 a 8.81,8.81 0 0 0 4.35,-7.58 z"
         id="path8"
         inkscape:connector-curvature="0"
         style="fill:#39757c" />
      <path
         class="cls-2"
         d="m 123,32.1 v 114.44 a 11.68,11.68 0 0 0 -5.81,1.55 l -66.55,38 -10.17,-5.79 A 8.8,8.8 0 0 1 36,172.64 V 84.91 a 8.81,8.81 0 0 1 4.47,-7.67 l 77.69,-44 A 8.74,8.74 0 0 1 123,32.1 Z"
         id="path10"
         inkscape:connector-curvature="0"
         style="fill:#709ba0" />
      <path
         class="cls-3"
         d="m 209,84.91 v 87.73 a 8.8,8.8 0 0 1 -4.47,7.66 l -9.6,5.44 -66.12,-37.66 A 11.7,11.7 0 0 0 123,146.54 V 32.1 a 8.67,8.67 0 0 1 3.84,1.13 l 77.69,44 a 8.81,8.81 0 0 1 4.47,7.68 z"
         id="path12"
         inkscape:connector-curvature="0"
         style="fill:#8baeb3" />
      <path
         class="cls-4"
         d="m 194.93,185.74 -68.09,38.57 a 8.67,8.67 0 0 1 -3.84,1.13 v -78.9 a 11.7,11.7 0 0 1 5.81,1.54 z"
         id="path14"
         inkscape:connector-curvature="0"
         style="fill:#99b8bb" />
      <path
         class="cls-5"
         d="m 123,146.54 v 78.9 a 8.74,8.74 0 0 1 -4.84,-1.13 l -67.52,-38.25 66.55,-38 a 11.68,11.68 0 0 1 5.81,-1.52 z"
         id="path16"
         inkscape:connector-curvature="0"
         style="fill:#639297" />
      <path
         class="cls-6"
         d="m 203.1,210.79 -74.29,42.31 a 11.7,11.7 0 0 1 -11.62,0 L 43,210.78 a 11.73,11.73 0 0 1 0,-20.38 l 7.6,-4.34 67.52,38.25 a 8.8,8.8 0 0 0 8.68,0 l 68.09,-38.57 8.17,4.65 a 11.74,11.74 0 0 1 0.04,20.4 z"
         id="path18"
         inkscape:connector-curvature="0"
         style="fill:#7da4aa" />
    </g>
  </g>
</svg>
